<svg width="24" height="24" viewBox="0 0 24 24" fill="none" xmlns="http://www.w3.org/2000/svg">
<path d="M12.3 5.66L4 4V16.4L6.86 16.98C6.88 16.78 6.9 16.58 6.94 16.4L4.6 15.94V4.74L12 6.22V14.72C12.06 14.72 12.1 14.68 12.12 14.62L12.6 13.7V6.2L20 4.72V15.9L19.36 16.02C19.46 16.2 19.54 16.4 19.56 16.62L20.6 16.42V4L12.3 5.66Z" fill="black"/>
<path d="M18.9601 16.74C18.9201 16.44 18.7601 16.16 18.5201 15.98C19.0401 15.36 18.7001 14.22 17.8601 14.1H17.8401L16.0801 14.2C16.0801 13.6 16.1801 13.04 16.1401 12.54C16.0801 11.52 15.5001 10.82 14.6001 10.64C14.2801 10.6 13.9401 10.84 13.9601 11.16V12.1C13.9601 12.28 13.9201 12.46 13.8401 12.62L12.7001 14.88C12.5801 15.14 12.3001 15.3 12.0001 15.3H8.64006C8.18006 15.3 7.78006 15.6 7.66006 16.04C7.52006 16.56 7.44006 17.12 7.44006 17.66C7.44006 18.28 7.54006 18.9 7.72006 19.48C7.86006 19.9 8.24006 20.18 8.68006 20.18H11.3801C11.7601 20.18 12.1201 20.24 12.4801 20.38C12.4801 20.38 13.7401 20.96 13.8601 21.02C13.9801 21.08 14.1801 21.14 14.5001 21.14H16.7001C17.4001 21.06 17.8401 20.2 17.5401 19.56C18.3601 19.58 18.8401 18.52 18.4001 17.86C18.7601 17.68 19.0201 17.2 18.9601 16.74ZM18.3601 16.92C18.3401 17.18 18.1401 17.32 17.9401 17.44C17.5601 17.62 17.8801 18 17.9401 18.28C18.0001 18.5 17.9001 18.8 17.7001 18.9C17.5001 19 17.1001 18.96 17.0001 19.22C16.9001 19.4 16.9001 19.58 16.9601 19.76C17.0001 19.86 17.0401 19.96 17.0201 20.08C17.0001 20.28 16.8001 20.52 16.6401 20.52C16.4801 20.52 14.8001 20.52 14.5201 20.52C14.5201 20.52 14.2401 20.52 14.1001 20.46L12.7001 19.8C12.2801 19.64 11.8401 19.56 11.3801 19.56H8.68006C8.52006 19.56 8.36006 19.44 8.30006 19.28C8.12006 18.76 8.04006 18.2 8.04006 17.64C8.04006 17.14 8.10006 16.66 8.24006 16.18C8.30006 16 8.46006 15.88 8.64006 15.88H12.0001C12.5201 15.88 13.0001 15.6 13.2401 15.14L14.3601 12.92C14.4801 12.66 14.5401 12.4 14.5401 12.12V11.26C15.1201 11.4 15.4801 11.88 15.5201 12.58C15.5801 13.1 15.4201 13.66 15.4401 14.26C15.4201 14.64 15.4201 14.8 15.9601 14.82L17.6601 14.72H17.8001C18.0401 14.78 18.1801 15.04 18.1801 15.28C18.2001 15.6 17.9001 15.78 17.8801 16.06C17.9001 16.16 17.9801 16.24 18.0801 16.32C18.2601 16.5 18.3801 16.68 18.3601 16.92Z" fill="black"/>
</svg>
