<svg width="24" height="24" viewBox="0 0 24 24" fill="none" xmlns="http://www.w3.org/2000/svg">
<path d="M8.03993 9.19576C7.99993 10.1558 8.11993 10.9958 8.39993 11.7558C8.45993 11.9158 8.31993 12.1758 8.01993 12.4958L6.17993 14.6158H6.97993L8.47993 12.8958C8.77993 12.5758 9.15993 12.0758 8.97993 11.5358C8.71993 10.8358 8.61993 10.0758 8.65993 9.17576C8.65993 9.15576 8.65993 9.13576 8.65993 9.11576L8.07993 5.49576C8.39993 5.39576 8.73993 5.47576 8.99993 5.69576C9.13993 5.81576 9.23993 5.95576 9.29993 6.13576C9.35993 6.33576 9.39993 6.55576 9.43993 6.77576C9.47993 6.99576 9.51993 7.23576 9.57993 7.45576C9.71993 7.99576 10.0799 8.33576 10.5199 8.35576C10.9199 8.37576 11.2799 8.13576 11.4399 7.75576L11.7199 6.99576C12.0399 6.11576 13.2399 2.83576 13.2399 2.83576C13.2799 2.71576 13.3599 2.65576 13.4199 2.63576C13.5199 2.59576 13.6199 2.59576 13.7199 2.61576C13.8799 2.67576 13.9999 2.87576 13.9399 3.07576C13.9399 3.09576 13.9399 3.11576 13.9199 3.13576L13.4799 5.75576C13.4599 5.89576 13.5399 6.03576 13.6799 6.09576C13.7199 6.11576 13.7799 6.13576 13.8399 6.17576C13.8999 6.21576 13.9599 6.23576 13.9999 6.25576C14.1199 6.29576 14.2599 6.27576 14.3599 6.15576L16.2599 3.65576C16.3799 3.47575 16.6199 3.43576 16.7999 3.55576C16.9599 3.69576 16.9999 3.91576 16.8999 4.09576C16.8999 4.09576 16.8999 4.11576 16.8799 4.11576L15.3799 6.89576C15.3199 7.01576 15.3399 7.17576 15.4599 7.27576C15.4999 7.31576 15.5399 7.33576 15.5599 7.37576C15.5999 7.41576 15.6599 7.47576 15.7199 7.51576C15.8199 7.59576 15.9799 7.59576 16.0799 7.53576L18.4199 5.87576L18.4399 5.85576C18.5399 5.77576 18.6399 5.77576 18.6999 5.77576C18.7999 5.79576 18.8999 5.83576 18.9599 5.91576C19.0799 6.07576 19.0399 6.29576 18.8799 6.45576L16.8399 8.45576C16.7399 8.55576 16.7199 8.73576 16.8199 8.85576C16.8399 8.87576 16.8599 8.91576 16.8999 8.97576C16.9399 9.03576 16.9799 9.11576 17.0199 9.17576C17.0999 9.27576 17.2199 9.31576 17.3399 9.27576L19.0399 8.77576C19.0599 8.77576 19.0599 8.77576 19.0799 8.75576C19.1999 8.69576 19.3799 8.79576 19.4399 8.91576C19.4999 9.05576 19.4399 9.21576 19.2999 9.29576L16.3999 10.7358L15.8599 10.9958C15.7999 11.0358 15.7399 11.0758 15.7199 11.1558C15.4999 11.6558 15.1999 12.1558 14.7799 12.6358C14.6799 12.7558 14.5799 12.8758 14.4599 12.9758C14.7999 12.8558 15.1999 12.6958 15.5999 12.5558C15.8599 12.1958 16.0599 11.8358 16.2399 11.4758L16.6999 11.2558L19.5799 9.83576C19.9999 9.61576 20.1799 9.11576 19.9999 8.69576C19.8199 8.25576 19.2799 8.03576 18.8599 8.21576L17.5799 8.59576L19.3199 6.87576C19.6999 6.51576 19.7599 5.95576 19.4599 5.53576C19.4599 5.53576 19.4599 5.51576 19.4399 5.51576C19.2799 5.31576 19.0399 5.19576 18.7799 5.17576C18.5199 5.13576 18.2599 5.21576 18.0599 5.37576L16.1399 6.73576L17.3599 4.39576C17.6199 3.95576 17.5199 3.39576 17.0999 3.05576C16.6599 2.75576 16.0399 2.85576 15.7399 3.27576L14.0999 5.43576L14.4599 3.25576C14.6199 2.77575 14.3399 2.23576 13.8599 2.05576C13.6199 1.97576 13.3399 1.97576 13.1199 2.09576C12.8799 2.19576 12.6999 2.39576 12.6199 2.65576C12.6199 2.65576 11.4199 5.93576 11.0999 6.81576L10.8199 7.57576C10.7599 7.71576 10.6399 7.79576 10.4999 7.77576C10.3199 7.77576 10.1799 7.59576 10.0999 7.31576C10.0399 7.11576 9.99993 6.89576 9.95993 6.67576C9.91993 6.45576 9.87993 6.21576 9.79993 5.97576C9.69993 5.65576 9.53993 5.41576 9.31993 5.25576C8.83993 4.83576 8.11993 4.75576 7.53993 5.05576C7.41993 5.11576 7.35993 5.23576 7.37993 5.37576L8.03993 9.19576Z" fill="black"/>
<path d="M17.28 22.3558C17.16 22.3558 17.04 22.3358 16.94 22.2758L13.5 20.7958C12.08 21.1758 10.82 21.1358 9.34 20.5758C8.72 20.3558 8.04 20.3158 7.4 20.3158L4.34 20.2958C4.18 20.2958 4.04 20.1558 4.04 19.9958C4.04 19.8358 4.18 19.6958 4.34 19.6958L7.38 19.7358C8.08 19.7358 8.82 19.7758 9.52 20.0358C10.28 20.3158 10.98 20.4558 11.68 20.4558C12.24 20.4558 12.82 20.3758 13.42 20.2158C13.48 20.1958 13.56 20.1958 13.62 20.2358L17.16 21.7558C17.3 21.8158 17.46 21.7558 17.54 21.6158C17.6 21.4758 17.54 21.2958 17.4 21.2158L15.72 20.1358C15.6 20.0558 15.56 19.9158 15.6 19.7958L15.72 19.4358C15.76 19.2958 15.9 19.2158 16.04 19.2358L19.1 19.5158C19.32 19.5358 19.5 19.3958 19.54 19.1958C19.56 19.0958 19.54 18.9958 19.5 18.9158C19.44 18.8158 19.34 18.7558 19.22 18.7358H19.2L16.4 17.8958C16.28 17.8558 16.18 17.7358 16.18 17.6158C16.18 17.4758 16.18 17.3558 16.2 17.2158C16.22 17.0958 16.32 16.9958 16.44 16.9758L19.54 16.3958C19.76 16.3758 19.9 16.1958 19.9 15.9758C19.9 15.8558 19.82 15.7758 19.78 15.7358C19.7 15.6758 19.58 15.6358 19.48 15.6358L16.18 15.7158C16.04 15.7158 15.9 15.6158 15.88 15.4558C15.86 15.3558 15.84 15.2558 15.8 15.1758C15.72 15.0358 15.78 14.8558 15.94 14.7758L18.34 13.5558C18.34 13.5558 18.36 13.5558 18.36 13.5358C18.54 13.4558 18.64 13.2558 18.58 13.0558C18.5 12.8358 18.26 12.7758 18.08 12.8358C18.06 12.8358 14.8 14.0558 13.92 14.3758L13.16 14.6558C12.82 14.7958 12.4 14.6958 12.14 14.3958C11.84 14.0358 11.86 13.5358 12.2 13.0358C12.32 12.8758 12.44 12.7358 12.54 12.5958C12.72 12.3758 12.88 12.1958 13 11.9758C13.12 11.7758 13.18 11.5958 13.18 11.4358C13.18 11.0958 13.02 10.7958 12.76 10.6158L10.38 13.4558C10.36 13.4758 10.34 13.4958 10.32 13.4958C9.68 13.9758 9.14 14.5558 8.74 15.2358C8.46 15.6958 7.86 15.7358 7.42 15.7358L4.3 15.7158C4.14 15.7158 4 15.5758 4 15.4158C4 15.2558 4.14 15.1158 4.3 15.1158L7.42 15.1358C7.98 15.1358 8.16 15.0158 8.22 14.9158C8.64 14.1758 9.22 13.5358 9.92 13.0158L12.44 10.0358C12.52 9.93576 12.66 9.89576 12.78 9.95576C13.38 10.2158 13.76 10.7758 13.76 11.4358C13.76 11.7158 13.68 11.9958 13.5 12.2958C13.34 12.5358 13.16 12.7558 13 12.9758C12.88 13.1158 12.78 13.2558 12.68 13.3958C12.5 13.6558 12.48 13.8758 12.6 14.0358C12.68 14.1358 12.82 14.1558 12.92 14.1158L13.7 13.8358C14.56 13.5158 17.82 12.3158 17.86 12.2958C18.4 12.1158 18.96 12.3758 19.12 12.8758C19.3 13.3558 19.06 13.8958 18.58 14.0958L16.62 15.0958L19.4 15.0358C19.66 15.0158 19.9 15.0958 20.1 15.2558C20.3 15.4158 20.44 15.6758 20.44 15.9358C20.46 16.4758 20.1 16.9358 19.58 16.9958L16.98 17.4358L19.3 18.1358C19.58 18.1958 19.8 18.3558 19.94 18.5758C20.08 18.7958 20.12 19.0558 20.08 19.2958C20 19.7958 19.52 20.1558 19 20.0958L16.36 19.8558L17.66 20.7158C18.06 20.9558 18.24 21.4758 18.02 21.8958C17.92 22.1758 17.6 22.3558 17.28 22.3558Z" fill="black"/>
</svg>
